<?xml version="1.0" standalone="no"?>
<!DOCTYPE svg PUBLIC "-//W3C//DTD SVG 20010904//EN"
 "http://www.w3.org/TR/2001/REC-SVG-20010904/DTD/svg10.dtd">
<svg version="1.0" xmlns="http://www.w3.org/2000/svg"
 width="626.000000pt" height="626.000000pt" viewBox="0 0 626.000000 626.000000"
 preserveAspectRatio="xMidYMid meet">

<g transform="translate(0.000000,626.000000) scale(0.100000,-0.100000)"
fill="#000000" stroke="none">
<path d="M1473 4886 c-61 -20 -106 -51 -157 -107 -64 -72 -85 -136 -93 -284
l-6 -122 -51 19 c-90 35 -217 23 -297 -27 -53 -34 -112 -98 -138 -149 -32 -66
-40 -162 -41 -483 l0 -291 -223 -4 c-262 -5 -289 -12 -371 -92 -126 -123 -127
-306 -2 -431 80 -80 110 -88 374 -93 l222 -4 0 -291 c1 -417 12 -475 109 -573
101 -103 254 -135 384 -81 l34 15 6 -122 c7 -150 28 -214 97 -289 28 -30 73
-65 107 -82 53 -27 67 -30 158 -30 87 0 106 3 149 25 77 39 132 94 168 168
l33 67 3 597 3 598 1144 0 1145 0 2 -597 3 -598 29 -63 c33 -71 94 -133 172
-172 43 -22 62 -25 149 -25 113 0 166 19 238 84 86 77 112 143 122 306 4 66 8
121 10 123 2 2 25 -4 52 -13 180 -61 375 33 444 216 19 48 20 77 20 383 0 182
3 336 7 343 5 8 85 13 272 15 309 5 330 9 414 92 126 123 127 306 2 431 -83
83 -105 88 -416 93 -188 2 -267 7 -272 15 -5 7 -8 161 -7 343 0 307 -1 334
-20 383 -41 108 -126 190 -229 220 -59 17 -159 15 -213 -3 -67 -24 -68 -23
-62 42 17 197 -57 353 -204 427 -53 27 -67 30 -158 30 -87 0 -106 -3 -149 -25
-77 -39 -132 -94 -168 -168 l-33 -67 -3 -597 -2 -598 -1145 0 -1144 0 -3 598
-3 597 -33 67 c-36 74 -92 129 -168 168 -60 29 -194 38 -261 16z"/>
</g>
</svg>
